<svg xmlns="http://www.w3.org/2000/svg" viewBox="0 0 49.07 12.8"><defs><style>.cls-1{fill:#fff;}</style></defs><title>Recurso 3</title><g id="Capa_2" data-name="Capa 2"><g id="folds"><path class="cls-1" d="M38.88,3.44H41V9.75H38.88ZM40.77.56a2.32,2.32,0,0,0-.29-.21L39.92,0l-.56.35-.29.21a1.2,1.2,0,0,0,1.7,1.69,1.19,1.19,0,0,0,0-1.69"/><path class="cls-1" d="M3.58,9.75H0v-9H3.58c1.39,0,3.06.5,3.06,2.31A2,2,0,0,1,5.16,5v0A2.06,2.06,0,0,1,7,7.14c0,2-1.71,2.61-3.42,2.61M3.16,2.5H2.09V4.35H3.26c.81,0,1.28-.34,1.28-1S4.07,2.5,3.16,2.5M3.3,6H2.09V8H3.31C4,8,4.83,7.81,4.83,6.94S4.23,6,3.3,6"/><rect class="cls-1" x="7.84" y="0.16" width="2.11" height="9.59"/><path class="cls-1" d="M11.12,4.3a4.15,4.15,0,0,1,2.82-1.07c2.12,0,2.9,1,2.9,3.34V9.75h-1.9V9.08h0a2.1,2.1,0,0,1-1.79.83,2.06,2.06,0,0,1-2.3-2C10.81,6.1,13,5.8,14.88,5.8V5.69c0-.62-.5-.91-1.15-.91a2.38,2.38,0,0,0-1.56.65ZM14.94,7h-.27c-.91,0-1.94.12-1.94.86,0,.49.48.65.9.65a1.2,1.2,0,0,0,1.31-1.29Z"/><path class="cls-1" d="M22.29,5.48A1.41,1.41,0,0,0,21.19,5,1.52,1.52,0,0,0,19.73,6.6a1.5,1.5,0,0,0,1.48,1.61,1.52,1.52,0,0,0,1.13-.47L23.5,9.15a3.47,3.47,0,0,1-2.34.81A3.29,3.29,0,0,1,17.62,6.6a3.32,3.32,0,0,1,3.53-3.37,3.49,3.49,0,0,1,2.35.85Z"/><polygon class="cls-1" points="30.92 9.76 28.34 9.76 26.27 6.72 26.23 6.72 26.23 9.76 24.14 9.76 24.14 0.16 26.23 0.16 26.23 6 26.27 6 28.29 3.44 30.81 3.44 28.38 6.29 30.92 9.76"/><path class="cls-1" d="M36.66,3.11a2.18,2.18,0,0,0-1.6-.78c-.56,0-1.26.19-1.26.9s.54.79,1.39,1.06C36.4,4.68,38,5.2,38,7c0,2.07-1.66,3-3.44,3a4.74,4.74,0,0,1-3.36-1.29L32.6,7.24a2.64,2.64,0,0,0,1.94.95c.66,0,1.24-.25,1.24-1s-.68-.9-1.86-1.28-2.3-1-2.3-2.58c0-2,1.8-2.82,3.48-2.82A4.47,4.47,0,0,1,38,1.65Z"/><path class="cls-1" d="M46.06,9.93a2.42,2.42,0,0,1-1.92-.87h0V12.8H42V3.44h2v.77h0a2.49,2.49,0,0,1,2-1,3.09,3.09,0,0,1,3,3.31,3.1,3.1,0,0,1-3,3.36m-.49-5A1.57,1.57,0,0,0,44,6.58a1.56,1.56,0,0,0,1.53,1.63,1.51,1.51,0,0,0,1.48-1.64A1.49,1.49,0,0,0,45.57,5"/></g></g></svg>