<?xml version="1.0" encoding="utf-8"?>
<!-- Generator: Adobe Illustrator 22.1.0, SVG Export Plug-In . SVG Version: 6.00 Build 0)  -->
<svg version="1.1" id="Capa_1" xmlns="http://www.w3.org/2000/svg" xmlns:xlink="http://www.w3.org/1999/xlink" x="0px" y="0px"
	 viewBox="0 0 68.6 54.6" style="enable-background:new 0 0 68.6 54.6;" xml:space="preserve">
<style type="text/css">
	.st0{display:none;}
	.st1{display:inline;}
</style>
<g class="st0">
	<path class="st1" d="M28.6,29.6c-0.8,0-1.6-0.1-2.4-0.4c-0.2-0.1-0.5,0-0.7,0.1l-1.5,1.5c-1.9-0.9-3.4-2.5-4.4-4.4l1.5-1.5
		c0.2-0.2,0.3-0.5,0.1-0.7C21.1,23.6,21,22.8,21,22c0-0.4-0.3-0.7-0.7-0.7H18c-0.4,0-0.7,0.3-0.7,0.7c0,6.3,5.1,11.3,11.3,11.3
		c0.4,0,0.7-0.3,0.7-0.7v-2.3C29.3,29.9,29,29.6,28.6,29.6L28.6,29.6z M28,27.3h1.3c0-3.3-2.7-6-6-6v1.3C25.9,22.6,28,24.7,28,27.3
		L28,27.3z M25.3,27.3h1.3c0-1.9-1.5-3.3-3.3-3.3v1.3C24.4,25.3,25.3,26.2,25.3,27.3L25.3,27.3z M25.3,27.3"/>
</g>
<g class="st0">
	<path class="st1" d="M23.3,21.3c-2.3,0-4.2,1.9-4.2,4.2c0,3.1,4.2,7.8,4.2,7.8s4.2-4.7,4.2-7.8C27.5,23.2,25.6,21.3,23.3,21.3
		L23.3,21.3z M23.3,27.5c-1.1,0-2-0.9-2-2c0-1.1,0.9-2,2-2c1.1,0,2,0.9,2,2C25.3,26.6,24.4,27.5,23.3,27.5L23.3,27.5z M23.3,27"/>
</g>
<g class="st0">
	<path class="st1" d="M23.3,21.3c-1.8,0-2.7,0.9-2.7,2.7c0,2.4,1,3.8,2.7,3.8c0,0,2.7,0.1,2.7-3.8C26,22.2,25.1,21.3,23.3,21.3
		L23.3,21.3z M23.3,21.3"/>
	<path class="st1" d="M28.1,29.6l-2.7-1.1L24.7,28c-0.2-0.1-0.4-0.1-0.6,0l-0.9,0.9L22.4,28c-0.2-0.2-0.4-0.2-0.6,0l-0.6,0.5
		l-2.7,1.1c-0.9,0.3-0.9,3.4-0.9,3.7H29C28.9,33,28.9,29.9,28.1,29.6L28.1,29.6z M28.1,29.6"/>
</g>
<g class="st0">
	<path class="st1" d="M33.1,36.3l-4.9-4.9c1.3-1.5,2.1-3.5,2.1-5.6c0-4.7-3.8-8.5-8.5-8.5c-4.7,0-8.5,3.8-8.5,8.5s3.8,8.5,8.5,8.5
		c2.1,0,4.1-0.8,5.6-2.1l4.9,4.9c0.1,0.1,0.3,0.2,0.4,0.2c0.2,0,0.3-0.1,0.4-0.2C33.3,36.9,33.3,36.5,33.1,36.3L33.1,36.3z
		 M14.5,25.8c0-4,3.3-7.3,7.3-7.3c4,0,7.3,3.3,7.3,7.3s-3.3,7.3-7.3,7.3C17.8,33.2,14.5,29.9,14.5,25.8L14.5,25.8z M14.5,25.8"/>
</g>
<g class="st0">
	<path class="st1" d="M26.1,23.8H15.3c-0.2,0-0.4,0.2-0.4,0.4c0,0.2,0.2,0.4,0.4,0.4h10.8c0.2,0,0.4-0.2,0.4-0.4
		C26.5,24,26.3,23.8,26.1,23.8L26.1,23.8z M26.1,23.8"/>
	<path class="st1" d="M15.3,21.2h4.3c0.2,0,0.4-0.2,0.4-0.4c0-0.2-0.2-0.4-0.4-0.4h-4.3c-0.2,0-0.4,0.2-0.4,0.4
		C14.8,21,15,21.2,15.3,21.2L15.3,21.2z M15.3,21.2"/>
	<path class="st1" d="M26.5,27.7c0-0.2-0.2-0.4-0.4-0.4H15.3c-0.2,0-0.4,0.2-0.4,0.4c0,0.2,0.2,0.4,0.4,0.4h10.8
		C26.3,28.2,26.5,28,26.5,27.7L26.5,27.7z M26.5,27.7"/>
	<path class="st1" d="M23.1,31.2c0-0.2-0.2-0.4-0.4-0.4h-7.4c-0.2,0-0.4,0.2-0.4,0.4c0,0.2,0.2,0.4,0.4,0.4h7.4
		C22.9,31.6,23.1,31.4,23.1,31.2L23.1,31.2z M23.1,31.2"/>
	<path class="st1" d="M15.3,34.2c-0.2,0-0.4,0.2-0.4,0.4c0,0.2,0.2,0.4,0.4,0.4h6.1c0.2,0,0.4-0.2,0.4-0.4c0-0.2-0.2-0.4-0.4-0.4
		H15.3z M15.3,34.2"/>
	<path class="st1" d="M11.4,15.2h12.6v6.1H30v6.5h0.9v-7.1l-6.3-6.3h-14v26h16v-0.9H11.4V15.2z M24.8,15.8l4.6,4.6h-4.6V15.8z
		 M24.8,15.8"/>
	<path class="st1" d="M36,39.6l-2.6-2.7c0.8-0.8,1.2-1.9,1.2-3.1c0-2.6-2.1-4.7-4.7-4.7c-2.6,0-4.7,2.1-4.7,4.7
		c0,2.6,2.1,4.7,4.7,4.7c1.1,0,2-0.4,2.8-1l2.6,2.7c0.1,0.1,0.2,0.1,0.3,0.1c0.1,0,0.2,0,0.3-0.1C36.1,40,36.1,39.7,36,39.6L36,39.6
		z M26.1,33.7c0-2.1,1.7-3.8,3.8-3.8c2.1,0,3.8,1.7,3.8,3.8c0,2.1-1.7,3.8-3.8,3.8C27.8,37.5,26.1,35.8,26.1,33.7L26.1,33.7z
		 M26.1,33.7"/>
</g>
<g class="st0">
	<g class="st1">
		<g>
			<g>
				<polygon points="33.7,40.3 12.9,40.3 12.9,15.6 16.8,15.6 16.8,16.7 14,16.7 14,39.2 32.6,39.2 32.6,16.7 29.8,16.7 29.8,15.6 
					33.7,15.6 				"/>
			</g>
			<g>
				<path d="M30.9,19.2H15.7l1.1-4.9h13.1L30.9,19.2z M17.1,18.1h12.4l-0.6-2.7H17.6L17.1,18.1L17.1,18.1z"/>
			</g>
			<g>
				<g>
					<path d="M20.8,27.7h-4.8v-5.1h4.8V27.7z M17.2,26.6h2.5v-2.9h-2.5V26.6L17.2,26.6z"/>
				</g>
				<g>
					<rect x="22.9" y="24.6" width="7" height="1.1"/>
				</g>
			</g>
			<g>
				<g>
					<path d="M20.8,35.1h-4.8V30h4.8V35.1z M17.2,34h2.5v-2.9h-2.5V34z"/>
				</g>
				<g>
					<rect x="22.9" y="32" width="7" height="1.1"/>
				</g>
			</g>
		</g>
	</g>
</g>
<g class="st0">
	<path class="st1" d="M33.8,14.3H14.3c-0.7,0-1.3,0.6-1.3,1.3v1.5h-1c-0.3,0-0.6,0.2-0.6,0.6s0.2,0.6,0.6,0.6h1V21h-1
		c-0.3,0-0.6,0.2-0.6,0.6s0.2,0.6,0.6,0.6h1v2.7h-1c-0.3,0-0.6,0.2-0.6,0.6s0.2,0.6,0.6,0.6h1v2.7h-1c-0.3,0-0.6,0.2-0.6,0.6
		c0,0.3,0.2,0.6,0.6,0.6h1v2.7h-1c-0.3,0-0.6,0.2-0.6,0.6c0,0.3,0.2,0.6,0.6,0.6h1v2.7h-1c-0.3,0-0.6,0.2-0.6,0.6
		c0,0.3,0.2,0.6,0.6,0.6h1V39c0,0.7,0.6,1.3,1.3,1.3h19.5c0.7,0,1.3-0.6,1.3-1.3V15.6C35.1,14.9,34.6,14.3,33.8,14.3
		C33.8,14.3,33.8,14.3,33.8,14.3z M34,39c0,0.1-0.1,0.2-0.2,0.2H14.3c-0.1,0-0.2-0.1-0.2-0.2v-1.5h1c0.3,0,0.6-0.2,0.6-0.6
		c0-0.3-0.2-0.6-0.6-0.6h-1v-2.7h1c0.3,0,0.6-0.2,0.6-0.6c0-0.3-0.2-0.6-0.6-0.6h-1v-2.7h1c0.3,0,0.6-0.2,0.6-0.6s-0.2-0.6-0.6-0.6
		h-1v-2.7h1c0.3,0,0.6-0.2,0.6-0.6s-0.2-0.6-0.6-0.6h-1v-2.7h1c0.3,0,0.6-0.2,0.6-0.6S15.4,21,15.1,21h-1v-2.7h1
		c0.3,0,0.6-0.2,0.6-0.6s-0.2-0.6-0.6-0.6h-1v-1.5c0-0.1,0.1-0.2,0.2-0.2h19.5c0.1,0,0.2,0.1,0.2,0.2L34,39z"/>
	<path class="st1" d="M28.8,17.3h-9.4c-0.7,0-1.3,0.6-1.3,1.3v4c0,0.7,0.6,1.3,1.3,1.3h9.4c0.7,0,1.3-0.6,1.3-1.3v-4
		C30.1,17.9,29.5,17.3,28.8,17.3z M29,22.6c0,0.1-0.1,0.2-0.2,0.2h-9.4c-0.1,0-0.2-0.1-0.2-0.2l0,0v-4c0-0.1,0.1-0.2,0.2-0.2l0,0
		h9.4c0.1,0,0.2,0.1,0.2,0.2V22.6z"/>
	<path class="st1" d="M28.6,30.5h-8.7c-0.3,0-0.6,0.2-0.6,0.6c0,0.3,0.2,0.6,0.6,0.6h8.7c0.3,0,0.6-0.2,0.6-0.6
		C29.1,30.8,28.9,30.5,28.6,30.5z"/>
	<path class="st1" d="M28.6,33.7h-8.7c-0.3,0-0.6,0.2-0.6,0.6c0,0.3,0.2,0.6,0.6,0.6h8.7c0.3,0,0.6-0.2,0.6-0.6
		C29.1,33.9,28.9,33.7,28.6,33.7z"/>
</g>
<g class="st0">
	<g class="st1">
		<g>
			<path d="M15.6,39.7c0,1.4,1.2,2.6,2.5,2.6s2.5-1.2,2.5-2.6c0-1.4-1.1-2.6-2.5-2.6C16.7,37.2,15.6,38.3,15.6,39.7z M16.8,39.7
				c0-0.7,0.6-1.3,1.2-1.3s1.2,0.6,1.2,1.3c0,0.7-0.5,1.3-1.2,1.3C17.4,41,16.8,40.4,16.8,39.7z"/>
			<path d="M29.2,39.7c0,1.4,1.1,2.6,2.5,2.6c1.3,0,2.5-1.2,2.5-2.6c0-1.4-1.1-2.6-2.5-2.6C30.3,37.2,29.2,38.3,29.2,39.7z
				 M30.4,39.7c0-0.7,0.5-1.3,1.2-1.3c0.6,0,1.2,0.6,1.2,1.3c0,0.7-0.5,1.3-1.2,1.3C31,41,30.4,40.5,30.4,39.7z"/>
			<path d="M12,12.3H8.5v1.3H11l4.5,17.6h0.1H33c1,0,1.9,0.9,1.9,2s-0.8,2-1.9,2H15.6v1.2H33c1.8,0,3.2-1.5,3.2-3.3
				c0-1.7-1.2-3-2.7-3.2l4.6-13.7H13L12,12.3L12,12.3z M16.5,29.9l-3.1-12.4h22.9l-4.2,12.4H16.5L16.5,29.9z"/>
			<rect x="28.7" y="20.5" width="1.3" height="7.2"/>
			<rect x="24.2" y="20.5" width="1.3" height="7.2"/>
			<rect x="19.6" y="20.5" width="1.3" height="7.2"/>
		</g>
	</g>
</g>
<g class="st0">
	<path class="st1" d="M22,30.5c0-4-3.3-7.3-7.3-7.3c-4,0-7.3,3.3-7.3,7.3c0,1.2,0.3,2.3,0.8,3.3l6.6,13.5l6.6-13.5
		C21.8,32.8,22,31.7,22,30.5L22,30.5z M14.7,34.5c-2.2,0-4.1-1.8-4.1-4.1c0-2.2,1.8-4.1,4.1-4.1c2.2,0,4.1,1.8,4.1,4.1
		C18.8,32.7,16.9,34.5,14.7,34.5L14.7,34.5z M14.7,34.5"/>
	<path class="st1" d="M35.5,7.3c-2.1,0-3.7,1.7-3.7,3.7c0,0.6,0.1,1.2,0.4,1.7l3.3,6.8l3.3-6.8c0.3-0.5,0.4-1.1,0.4-1.7
		C39.2,9,37.6,7.3,35.5,7.3L35.5,7.3z M35.5,13.1c-1.1,0-2.1-0.9-2.1-2.1c0-1.1,0.9-2.1,2.1-2.1c1.1,0,2.1,0.9,2.1,2.1
		C37.6,12.2,36.6,13.1,35.5,13.1L35.5,13.1z M35.5,13.1"/>
	<path class="st1" d="M32.3,31.4c-0.2-0.7-0.3-1.4-0.6-2.1c-0.3-0.9-0.7-1.8-1-2.7c-0.6-1.7,0.4-3.2,0.6-3.4
		c0.3-0.5,0.7-0.9,1.1-1.3c0.8-0.8,1.6-1.4,2.5-2.1c-0.1-0.2-0.2-0.3-0.3-0.5c-1.3,0.5-7.8,2.8-7.7,7.8c0,1,0.4,2,0.7,3
		c0.1,0.5,0.2,0.9,0.3,1.4c0,0.2,0,0.4,0.1,0.7c0,0,0,0,0,0c0,0,0,0.7,0,1c-0.1,0.9-0.2,1.9-0.6,2.7c-0.4,0.8-0.9,1.5-1.6,2
		c-1.6,1.2-3.6,1.7-5.6,1.9c-0.1,0-0.2,0-0.3,0l-3.5,7.2c1.7-0.1,3.4-0.3,5.1-0.8c2-0.5,3.9-1.2,5.6-2.3c1.7-1.1,3.2-2.5,4.2-4.3
		c1-1.9,1.4-4,1.4-6.1C32.5,32.9,32.4,32.1,32.3,31.4L32.3,31.4z M32.3,31.4"/>
</g>
<path class="st0" d="M43.3,29.1l-3-4.7c-0.2-0.4-0.3-0.8-0.2-1.3l1.2-5.5c0.2-0.9-0.3-1.7-1.1-2L34.8,14c-0.4-0.1-0.8-0.4-1-0.8
	l-2.6-4.9c-0.4-0.8-1.3-1.1-2.1-0.8l-5.2,2.1c-0.4,0.2-0.9,0.2-1.3,0l-5.2-2.1c-0.8-0.3-1.7,0-2.1,0.8l-2.6,4.9
	c-0.2,0.4-0.6,0.7-1,0.8l-5.3,1.7c-0.8,0.3-1.3,1.1-1.1,2l1.2,5.5c0.1,0.4,0,0.9-0.2,1.3l-3,4.7c-0.5,0.7-0.3,1.7,0.4,2.2l4.4,3.4
	c0.4,0.3,0.6,0.7,0.6,1.1l0.8,5.5c0.1,0.9,0.9,1.5,1.7,1.5l5.6-0.2c0.4,0,0.9,0.1,1.2,0.4l4.1,3.8c0.6,0.6,1.6,0.6,2.3,0l4.1-3.8
	c0.3-0.3,0.8-0.5,1.2-0.4l5.6,0.2c0.9,0,1.6-0.6,1.7-1.5l0.8-5.5c0.1-0.4,0.3-0.8,0.6-1.1l4.4-3.4C43.6,30.8,43.8,29.8,43.3,29.1
	L43.3,29.1z M17.7,35.2l-5.8-4l2.4,5.5l-1.6,0.7L9,28.9l1.7-0.7l5.9,4.2l-2.4-5.7l1.6-0.7l3.7,8.5L17.7,35.2z M21.2,33.6l-3.7-8.5
	l6.3-2.7l0.6,1.4l-4.6,2l0.8,1.9l4.3-1.8l0.6,1.4l-4.3,1.8l1,2.3l4.7-2l0.6,1.4L21.2,33.6z M35.5,27.5l-4.4-5.6l1.1,7.1l-1.9,0.8
	l-5.7-7.6l1.8-0.8l3.8,5.3l-1-6.5l2-0.9l4,5.3L34,18.1l1.7-0.7l1.6,9.4L35.5,27.5z M33.8,27.5"/>
<g class="st0">
	<path class="st1" d="M31.4,12.3c-4.1,0-6.7,2.8-8.1,5.4c-1.4-2.5-4-5.4-8.1-5.4c-5.2,0-9.1,4.2-9.1,9.8c0,1.5,0.3,2.8,0.8,4.1h7.7
		l1.7-3.5c0.3-0.7,1.5-0.7,1.8,0l3.1,6.3l1.1-2.2c0.3-0.7,1.5-0.7,1.8,0l1.1,2.2l3.1-6.3c0.3-0.7,1.5-0.7,1.8,0l1.7,3.5h7.7
		c0.5-1.3,0.8-2.6,0.8-4.1C40.5,16.5,36.5,12.3,31.4,12.3z"/>
	<path class="st1" d="M30.5,27.6l-1.1-2.2l-3.1,6.3c-0.2,0.3-0.5,0.6-0.9,0.6s-0.7-0.2-0.9-0.6l-1.1-2.2l-1.1,2.2
		c-0.3,0.7-1.5,0.7-1.8,0l-3.1-6.3l-1.1,2.2c-0.2,0.3-0.5,0.6-0.9,0.6H8c2.1,3.3,5.8,6.4,10.5,10.3c1.3,1.1,2.7,2.3,4.2,3.6
		c0.2,0.2,0.4,0.2,0.7,0.2s0.5-0.1,0.7-0.2c1.5-1.3,2.9-2.5,4.2-3.6c4.7-3.9,8.4-7.1,10.5-10.3h-7.3C31,28.2,30.6,28,30.5,27.6z"/>
</g>
<polygon class="st0" points="26.4,36.3 18.6,27.4 26.2,18.3 27.8,19.6 21.3,27.4 28,34.9 "/>
<g class="st0">
	<g class="st1">
		<path d="M23.8,6.2c-0.4,0-0.7-0.3-0.7-0.6c-0.3-2.3-2.4-4.1-4.7-4.1c-1.5,0-3,0.7-3.8,2c-0.2,0.3-0.7,0.4-1,0.2
			c-0.3-0.2-0.4-0.7-0.2-1C14.5,1,16.3,0,18.3,0c3.1,0,5.7,2.3,6.2,5.3c0.1,0.4-0.2,0.8-0.6,0.8C23.8,6.2,23.8,6.2,23.8,6.2z"/>
		<path d="M34.4,14.7H2.2c-0.3,0-0.5-0.1-0.6-0.4c-0.1-0.2-0.1-0.5,0-0.7l2.2-3.7c0.1-0.2,0.4-0.4,0.6-0.4h1.2
			c0.4,0,0.7,0.3,0.7,0.7S6,11,5.6,11H4.8l-1.3,2.2h29.7L31.8,11h-1.7c-0.4,0-0.7-0.3-0.7-0.7s0.3-0.7,0.7-0.7h2.1
			c0.3,0,0.5,0.1,0.6,0.4l2.2,3.7c0.1,0.2,0.1,0.5,0,0.7C34.9,14.5,34.7,14.7,34.4,14.7z"/>
		<path d="M29.3,14.4c-0.1,0-0.1,0-0.2,0c-0.4-0.1-0.6-0.5-0.5-0.9l1.3-5.8l-8.6-2l-0.6,2.5c-0.1,0.4-0.5,0.6-0.9,0.5
			c-0.4-0.1-0.6-0.5-0.5-0.9l0.8-3.2c0-0.2,0.2-0.4,0.3-0.5c0.2-0.1,0.4-0.1,0.6-0.1l10,2.3c0.2,0,0.4,0.2,0.5,0.3
			c0.1,0.2,0.1,0.4,0.1,0.6L30,13.8C29.9,14.1,29.6,14.4,29.3,14.4z"/>
		<path d="M6.2,14.6c-0.4,0-0.7-0.3-0.7-0.6L4.3,4.5c0-0.4,0.2-0.8,0.6-0.8l12.3-1.4c0.2,0,0.4,0,0.5,0.2C17.9,2.5,18,2.7,18,2.9
			l0.7,5.6c0,0.4-0.2,0.8-0.6,0.8c-0.4,0-0.8-0.2-0.8-0.6l-0.6-4.9L5.9,5l1,8.7C6.9,14.1,6.7,14.5,6.2,14.6
			C6.2,14.6,6.2,14.6,6.2,14.6z"/>
		<path d="M23.8,14.5c-0.3,0-0.6-0.2-0.7-0.6l-1.3-5.3l-10.4,2.5l0.6,2.3c0.1,0.4-0.1,0.8-0.5,0.9c-0.4,0.1-0.8-0.1-0.9-0.5l-0.7-3
			C9.7,10.4,10,10,10.4,9.9l11.8-2.8c0.2,0,0.4,0,0.6,0.1C22.9,7.2,23,7.4,23,7.6l1.5,6c0.1,0.4-0.1,0.8-0.5,0.9
			C23.9,14.5,23.8,14.5,23.8,14.5z"/>
		<path d="M34.4,28.2l-0.7-13.6H2.9L1.5,41.8h18.6l0.3,1.5H0.7c-0.2,0-0.4-0.1-0.5-0.2C0.1,42.9,0,42.7,0,42.5l1.5-28.6
			c0-0.4,0.3-0.7,0.7-0.7h32.2c0.4,0,0.7,0.3,0.7,0.7l0.7,14.3"/>
		<path d="M23.8,20.5c-1.2,0-2.2-1-2.2-2.2c0-1.2,1-2.2,2.2-2.2c1.2,0,2.2,1,2.2,2.2C26,19.5,25,20.5,23.8,20.5z M23.8,17.6
			c-0.4,0-0.7,0.3-0.7,0.7s0.3,0.7,0.7,0.7s0.7-0.3,0.7-0.7S24.2,17.6,23.8,17.6z"/>
		<path d="M12.8,20.5c-1.2,0-2.2-1-2.2-2.2c0-1.2,1-2.2,2.2-2.2s2.2,1,2.2,2.2C15,19.5,14,20.5,12.8,20.5z M12.8,17.6
			c-0.4,0-0.7,0.3-0.7,0.7s0.3,0.7,0.7,0.7c0.4,0,0.7-0.3,0.7-0.7S13.2,17.6,12.8,17.6z"/>
		<path d="M23.8,17.6"/>
		<path d="M18.3,29.3c-3.4,0-6.2-2.8-6.2-6.2v-4c0-0.4,0.3-0.7,0.7-0.7c0.4,0,0.7,0.3,0.7,0.7v4c0,2.6,2.1,4.8,4.8,4.8
			s4.8-2.1,4.8-4.8v-3.7c0-0.1-0.1-0.2-0.1-0.3c0-0.4,0.3-0.7,0.7-0.7h0.1c0.4,0,0.7,0.3,0.7,0.7v4C24.5,26.5,21.8,29.3,18.3,29.3z"
			/>
	</g>
	<path class="st1" d="M34,54.6c-6.9,0-12.5-5.6-12.5-12.5S27.1,29.5,34,29.5s12.5,5.6,12.5,12.5S41,54.6,34,54.6z M34,30.8
		c-6.2,0-11.3,5.1-11.3,11.3S27.8,53.4,34,53.4s11.3-5.1,11.3-11.3S40.3,30.8,34,30.8z"/>
	<g class="st1">
		<path d="M29.5,35.3c0.3-0.2,0.6-0.5,0.9-0.7c0.3-0.2,0.7-0.4,1-0.5c0.4-0.2,0.8-0.3,1.2-0.4c0.4-0.1,0.9-0.1,1.4-0.1
			c0.7,0,1.3,0.1,1.9,0.3c0.6,0.2,1,0.5,1.4,0.8c0.4,0.3,0.7,0.8,0.9,1.3c0.2,0.5,0.3,1,0.3,1.6c0,0.6-0.1,1.1-0.2,1.5
			c-0.2,0.4-0.4,0.8-0.6,1.1c-0.2,0.3-0.5,0.6-0.8,0.8c-0.3,0.2-0.6,0.4-0.8,0.6c-0.3,0.2-0.5,0.4-0.7,0.6c-0.2,0.2-0.3,0.4-0.4,0.6
			l-0.3,1.6h-2.2l-0.2-1.9c-0.1-0.4,0-0.7,0.1-1c0.1-0.3,0.3-0.5,0.6-0.7c0.2-0.2,0.5-0.4,0.8-0.7c0.3-0.2,0.6-0.4,0.8-0.7
			c0.3-0.2,0.5-0.5,0.7-0.8c0.2-0.3,0.3-0.7,0.3-1.1c0-0.5-0.2-0.9-0.5-1.2c-0.3-0.3-0.8-0.4-1.4-0.4c-0.4,0-0.8,0-1.1,0.1
			c-0.3,0.1-0.5,0.2-0.7,0.3c-0.2,0.1-0.4,0.2-0.5,0.3C31.3,36.9,31.1,37,31,37c-0.3,0-0.5-0.1-0.7-0.4L29.5,35.3z M31.7,48.7
			c0-0.3,0-0.5,0.1-0.7s0.2-0.4,0.4-0.6c0.2-0.2,0.4-0.3,0.6-0.4c0.2-0.1,0.5-0.1,0.7-0.1c0.3,0,0.5,0,0.7,0.1
			c0.2,0.1,0.4,0.2,0.6,0.4c0.2,0.2,0.3,0.4,0.4,0.6c0.1,0.2,0.1,0.5,0.1,0.7c0,0.3,0,0.5-0.1,0.7c-0.1,0.2-0.2,0.4-0.4,0.6
			c-0.2,0.2-0.4,0.3-0.6,0.4c-0.2,0.1-0.5,0.1-0.7,0.1c-0.3,0-0.5,0-0.7-0.1c-0.2-0.1-0.4-0.2-0.6-0.4c-0.2-0.2-0.3-0.4-0.4-0.6
			C31.7,49.2,31.7,49,31.7,48.7z"/>
	</g>
</g>
<g class="st0">
	<path class="st1" d="M41,9.6c-4.7-4.7-11-7.3-17.7-7.3s-13,2.6-17.7,7.3c-4.7,4.7-7.3,11-7.3,17.7s2.6,13,7.3,17.7
		c4.7,4.7,11,7.3,17.7,7.3s13-2.6,17.7-7.3c4.7-4.7,7.3-11,7.3-17.7S45.7,14.3,41,9.6z M23.3,50.3c-6.2,0-11.9-2.4-16.3-6.8
		c-4.4-4.4-6.8-10.1-6.8-16.3S2.6,15.4,7,11c4.4-4.4,10.1-6.8,16.3-6.8S35.2,6.7,39.6,11c4.4,4.4,6.8,10.1,6.8,16.3
		s-2.4,11.9-6.8,16.3C35.2,47.9,29.4,50.3,23.3,50.3z"/>
	<path class="st1" d="M23.3,7.5c-2.9,0-5.6,0.6-8.2,1.8c-0.5,0.2-0.7,0.8-0.5,1.3c0,0,0,0,0,0c0.2,0.5,0.8,0.7,1.3,0.5
		c2.3-1.1,4.8-1.6,7.4-1.6c9.8,0,17.8,8,17.8,17.8s-8,17.8-17.8,17.8s-17.8-8-17.8-17.8c0-3.7,1.1-7.3,3.3-10.3
		c0.3-0.4,0.2-1-0.2-1.3c0,0,0,0,0,0c-0.4-0.3-1-0.2-1.4,0.2c-2.4,3.4-3.6,7.3-3.6,11.4c0,10.9,8.9,19.8,19.8,19.8S43,38.2,43,27.3
		S34.2,7.5,23.3,7.5z"/>
	<path class="st1" d="M17.7,25C17.7,24.9,17.7,24.9,17.7,25C17.7,24.9,17.7,24.9,17.7,25z"/>
	<path class="st1" d="M17.8,24.9C17.8,24.8,17.8,24.8,17.8,24.9C17.8,24.8,17.8,24.8,17.8,24.9z"/>
	<path class="st1" d="M28.9,29.6C28.9,29.6,28.9,29.6,28.9,29.6C28.9,29.6,28.9,29.6,28.9,29.6z"/>
	<path class="st1" d="M28.9,29.4C28.9,29.5,28.9,29.5,28.9,29.4C28.9,29.5,28.9,29.5,28.9,29.4z"/>
	<path class="st1" d="M17.6,25.2C17.6,25.2,17.6,25.1,17.6,25.2C17.6,25.1,17.6,25.2,17.6,25.2z"/>
	<path class="st1" d="M29,29.2c0,0,0,0.1,0,0.1C29,29.3,29,29.2,29,29.2z"/>
	<path class="st1" d="M29,29.3C29,29.4,29,29.4,29,29.3C29,29.4,29,29.4,29,29.3z"/>
	<path class="st1" d="M17.7,25.1C17.7,25,17.7,25,17.7,25.1C17.7,25,17.7,25,17.7,25.1z"/>
	<path class="st1" d="M17.6,25.3C17.6,25.3,17.6,25.2,17.6,25.3C17.6,25.2,17.6,25.3,17.6,25.3z"/>
	<path class="st1" d="M28.9,29.7C28.8,29.7,28.8,29.7,28.9,29.7C28.8,29.7,28.8,29.7,28.9,29.7z"/>
	<path class="st1" d="M29.5,14.2c0-0.4-0.2-0.7-0.5-0.9C29.3,13.5,29.5,13.8,29.5,14.2z"/>
	<path class="st1" d="M28.9,13.3C28.9,13.3,28.9,13.3,28.9,13.3c-0.5-0.2-0.9-0.1-1.2,0.2l-9.9,11.3c0,0,0,0.1-0.1,0.1c0,0,0,0,0,0
		c0,0,0,0,0,0.1c0,0,0,0,0,0c0,0,0,0.1,0,0.1c0,0,0,0,0,0c0,0,0,0.1,0,0.1c0,0,0,0,0,0c0,0,0,0.1,0,0.1c0,0,0,0,0,0c0,0,0,0.1,0,0.1
		l-0.5,15c0,0.4,0.2,0.8,0.6,0.9c0.1,0,0.2,0.1,0.4,0.1c0.3,0,0.5-0.1,0.7-0.3l9.9-11.3c0,0,0,0,0.1-0.1c0,0,0,0,0,0
		c0,0,0-0.1,0-0.1c0,0,0,0,0,0c0,0,0,0,0-0.1c0,0,0,0,0,0c0,0,0-0.1,0-0.1c0,0,0,0,0,0c0,0,0-0.1,0-0.1c0,0,0,0,0,0c0,0,0-0.1,0-0.1
		l0.5-15C29.5,13.8,29.3,13.5,28.9,13.3z M27.4,16.9l-0.3,10.9L20.2,25L27.4,16.9z M19.2,37.7l0.3-10.9l6.9,2.7L19.2,37.7z"/>
	<path class="st1" d="M23.3,14.5c0.5,0,1-0.4,1-1V12c0-0.5-0.4-1-1-1c-0.5,0-1,0.4-1,1v1.5C22.3,14.1,22.7,14.5,23.3,14.5z"/>
	<path class="st1" d="M23.3,40.1c-0.5,0-1,0.4-1,1v1.5c0,0.5,0.4,1,1,1s1-0.4,1-1v-1.5C24.3,40.5,23.8,40.1,23.3,40.1z"/>
	<path class="st1" d="M37,28.3h1.5c0.5,0,1-0.4,1-1s-0.4-1-1-1H37c-0.5,0-1,0.4-1,1S36.5,28.3,37,28.3z"/>
	<path class="st1" d="M7,27.3c0,0.5,0.4,1,1,1h1.5c0.5,0,1-0.4,1-1s-0.4-1-1-1H8C7.5,26.3,7,26.8,7,27.3z"/>
	<path class="st1" d="M11.4,13.8c0.5,0,1-0.4,1-1c0-0.2-0.1-0.4-0.2-0.6c-0.2-0.2-0.5-0.4-0.8-0.4h0c-0.5,0-1,0.4-1,1
		c0,0.2,0.1,0.5,0.2,0.6C10.8,13.6,11.1,13.8,11.4,13.8z"/>
</g>
<g>
	<path d="M9.2,9.3v36h50.2v-36H9.2z M39.8,27.8l-4.6,4.6c-0.6,0.5-1.4,0.5-1.9,0l-4.6-4.6l0,0L12.2,11h44.1L39.8,27.8L39.8,27.8z
		 M26.4,27.7L10.8,42.7V12.2L26.4,27.7z M27.5,28.9l4.6,4.6c0.6,0.6,1.4,0.8,2.1,0.8c0.8,0,1.5-0.3,2.2-0.9l4.6-4.6l15.3,14.7h-44
		L27.5,28.9z M42.2,27.8l15.5-15.6v30.5L42.2,27.8z M42.2,27.8"/>
</g>
<g class="st0">
	<g class="st1">
		<path d="M27.8,17.3h-9c-3,0-5.5,2.5-5.5,5.5v9c0,3,2.5,5.5,5.5,5.5h9c3,0,5.5-2.5,5.5-5.5v-9C33.3,19.8,30.8,17.3,27.8,17.3
			L27.8,17.3z M31.5,31.8c0,2.1-1.7,3.7-3.7,3.7h-9c-2.1,0-3.7-1.7-3.7-3.7v-9c0-2.1,1.7-3.7,3.7-3.7h9c2.1,0,3.7,1.7,3.7,3.7V31.8z
			 M31.5,31.8"/>
		<path d="M23.3,22.1c-2.8,0-5.2,2.3-5.2,5.2c0,2.8,2.3,5.2,5.2,5.2c2.8,0,5.2-2.3,5.2-5.2C28.4,24.5,26.1,22.1,23.3,22.1L23.3,22.1
			z M23.3,30.7c-1.9,0-3.4-1.5-3.4-3.4c0-1.9,1.5-3.4,3.4-3.4s3.4,1.5,3.4,3.4C26.7,29.2,25.1,30.7,23.3,30.7L23.3,30.7z M23.3,30.7
			"/>
		<path d="M28.7,20.6c-0.3,0-0.7,0.1-0.9,0.4c-0.2,0.2-0.4,0.6-0.4,0.9c0,0.3,0.1,0.7,0.4,0.9c0.2,0.2,0.6,0.4,0.9,0.4
			c0.3,0,0.7-0.1,0.9-0.4c0.2-0.2,0.4-0.6,0.4-0.9c0-0.3-0.1-0.7-0.4-0.9C29.3,20.8,29,20.6,28.7,20.6L28.7,20.6z M28.7,20.6"/>
	</g>
</g>
<g class="st0">
	<g class="st1">
		<path d="M24.9,37h-4.4v-9.5h-1.9v-3.8h1.9v-1.9c0-2,1.1-4.2,4.2-4.2l3.1,0v3.7h-2.3c-0.3,0-0.6,0.1-0.6,0.7v1.7h3l-0.4,3.8h-2.6
			V37z"/>
	</g>
</g>
<path class="st0" d="M19.4,36.3c-2.5,0-4.9-0.7-6.9-2l-0.8-0.5l1,0.1c0.3,0,0.7,0.1,1,0.1c1.8,0,3.4-0.5,4.9-1.5
	c-1.7-0.3-3.2-1.5-3.7-3.2l-0.1-0.4l0.4,0.1c0.3,0.1,0.6,0.1,1,0.1c-1.7-0.7-2.8-2.4-2.8-4.3l0-0.4l0.3,0.2c0.4,0.2,0.7,0.3,1.1,0.4
	c-0.9-0.9-1.4-2.1-1.4-3.4c0-0.8,0.2-1.6,0.6-2.3l0.2-0.3l0.2,0.3c2.2,2.6,5.3,4.3,8.7,4.5c0-0.3-0.1-0.5-0.1-0.8
	c0-2.6,2.1-4.7,4.7-4.7c1.2,0,2.4,0.5,3.3,1.4c0.9-0.2,1.8-0.5,2.6-1l0.5-0.3l-0.2,0.6c-0.2,0.8-0.7,1.5-1.3,2
	c0.5-0.1,1.1-0.3,1.6-0.5l0.7-0.3l-0.4,0.7c-0.6,0.9-1.3,1.7-2.2,2.3c0,0.2,0,0.3,0,0.5c0,3.1-1.2,6.3-3.3,8.7
	C27.3,34,24.3,36.3,19.4,36.3z"/>
<path class="st0" d="M29.9,19.3H16.7c-2.6,0-4.7,2.1-4.7,4.7v6.6c0,2.6,2.1,4.7,4.7,4.7h13.2c2.6,0,4.7-2.1,4.7-4.7V24
	C34.6,21.4,32.5,19.3,29.9,19.3z M26.7,27.6l-6.2,2.9c-0.2,0.1-0.4,0-0.4-0.2v-6.1c0-0.2,0.2-0.3,0.4-0.2l6.2,3.1
	C26.9,27.3,26.9,27.5,26.7,27.6z"/>
</svg>
