<?xml version="1.0" encoding="utf-8"?>
<!-- Generator: Adobe Illustrator 22.1.0, SVG Export Plug-In . SVG Version: 6.00 Build 0)  -->
<svg version="1.1" id="Capa_1" xmlns="http://www.w3.org/2000/svg" xmlns:xlink="http://www.w3.org/1999/xlink" x="0px" y="0px"
	 viewBox="0 0 68.6 68.6" style="enable-background:new 0 0 68.6 68.6;" xml:space="preserve">
<style type="text/css">
	.st0{display:none;}
	.st1{display:inline;}
</style>
<g class="st0">
	<path class="st1" d="M39.6,36.6c-0.8,0-1.6-0.1-2.4-0.4c-0.2-0.1-0.5,0-0.7,0.1l-1.5,1.5c-1.9-0.9-3.4-2.5-4.4-4.4l1.5-1.5
		c0.2-0.2,0.3-0.5,0.1-0.7C32.1,30.6,32,29.8,32,29c0-0.4-0.3-0.7-0.7-0.7H29c-0.4,0-0.7,0.3-0.7,0.7c0,6.3,5.1,11.3,11.3,11.3
		c0.4,0,0.7-0.3,0.7-0.7v-2.3C40.3,36.9,40,36.6,39.6,36.6L39.6,36.6z M39,34.3h1.3c0-3.3-2.7-6-6-6v1.3C36.9,29.6,39,31.7,39,34.3
		L39,34.3z M36.3,34.3h1.3c0-1.9-1.5-3.3-3.3-3.3v1.3C35.4,32.3,36.3,33.2,36.3,34.3L36.3,34.3z M36.3,34.3"/>
</g>
<g class="st0">
	<path class="st1" d="M34.3,28.3c-2.3,0-4.2,1.9-4.2,4.2c0,3.1,4.2,7.8,4.2,7.8s4.2-4.7,4.2-7.8C38.5,30.2,36.6,28.3,34.3,28.3
		L34.3,28.3z M34.3,34.5c-1.1,0-2-0.9-2-2c0-1.1,0.9-2,2-2c1.1,0,2,0.9,2,2C36.3,33.6,35.4,34.5,34.3,34.5L34.3,34.5z M34.3,34"/>
</g>
<g class="st0">
	<path class="st1" d="M34.3,28.3c-1.8,0-2.7,0.9-2.7,2.7c0,2.4,1,3.8,2.7,3.8c0,0,2.7,0.1,2.7-3.8C37,29.2,36.1,28.3,34.3,28.3
		L34.3,28.3z M34.3,28.3"/>
	<path class="st1" d="M39.1,36.6l-2.7-1.1L35.7,35c-0.2-0.1-0.4-0.1-0.6,0l-0.9,0.9L33.4,35c-0.2-0.2-0.4-0.2-0.6,0l-0.6,0.5
		l-2.7,1.1c-0.9,0.3-0.9,3.4-0.9,3.7H40C39.9,40,39.9,36.9,39.1,36.6L39.1,36.6z M39.1,36.6"/>
</g>
<g class="st0">
	<path class="st1" d="M44.1,43.3l-4.9-4.9c1.3-1.5,2.1-3.5,2.1-5.6c0-4.7-3.8-8.5-8.5-8.5c-4.7,0-8.5,3.8-8.5,8.5s3.8,8.5,8.5,8.5
		c2.1,0,4.1-0.8,5.6-2.1l4.9,4.9c0.1,0.1,0.3,0.2,0.4,0.2c0.2,0,0.3-0.1,0.4-0.2C44.3,43.9,44.3,43.5,44.1,43.3L44.1,43.3z
		 M25.5,32.8c0-4,3.3-7.3,7.3-7.3c4,0,7.3,3.3,7.3,7.3s-3.3,7.3-7.3,7.3C28.8,40.2,25.5,36.9,25.5,32.8L25.5,32.8z M25.5,32.8"/>
</g>
<g class="st0">
	<path class="st1" d="M37.1,30.8H26.3c-0.2,0-0.4,0.2-0.4,0.4c0,0.2,0.2,0.4,0.4,0.4h10.8c0.2,0,0.4-0.2,0.4-0.4
		C37.5,31,37.3,30.8,37.1,30.8L37.1,30.8z M37.1,30.8"/>
	<path class="st1" d="M26.3,28.2h4.3c0.2,0,0.4-0.2,0.4-0.4c0-0.2-0.2-0.4-0.4-0.4h-4.3c-0.2,0-0.4,0.2-0.4,0.4
		C25.8,28,26,28.2,26.3,28.2L26.3,28.2z M26.3,28.2"/>
	<path class="st1" d="M37.5,34.7c0-0.2-0.2-0.4-0.4-0.4H26.3c-0.2,0-0.4,0.2-0.4,0.4c0,0.2,0.2,0.4,0.4,0.4h10.8
		C37.3,35.2,37.5,35,37.5,34.7L37.5,34.7z M37.5,34.7"/>
	<path class="st1" d="M34.1,38.2c0-0.2-0.2-0.4-0.4-0.4h-7.4c-0.2,0-0.4,0.2-0.4,0.4c0,0.2,0.2,0.4,0.4,0.4h7.4
		C33.9,38.6,34.1,38.4,34.1,38.2L34.1,38.2z M34.1,38.2"/>
	<path class="st1" d="M26.3,41.2c-0.2,0-0.4,0.2-0.4,0.4c0,0.2,0.2,0.4,0.4,0.4h6.1c0.2,0,0.4-0.2,0.4-0.4c0-0.2-0.2-0.4-0.4-0.4
		H26.3z M26.3,41.2"/>
	<path class="st1" d="M22.4,22.2h12.6v6.1H41v6.5h0.9v-7.1l-6.3-6.3h-14v26h16v-0.9H22.4V22.2z M35.8,22.8l4.6,4.6h-4.6V22.8z
		 M35.8,22.8"/>
	<path class="st1" d="M47,46.6l-2.6-2.7c0.8-0.8,1.2-1.9,1.2-3.1c0-2.6-2.1-4.7-4.7-4.7c-2.6,0-4.7,2.1-4.7,4.7
		c0,2.6,2.1,4.7,4.7,4.7c1.1,0,2-0.4,2.8-1l2.6,2.7c0.1,0.1,0.2,0.1,0.3,0.1c0.1,0,0.2,0,0.3-0.1C47.1,47,47.1,46.7,47,46.6L47,46.6
		z M37.1,40.7c0-2.1,1.7-3.8,3.8-3.8c2.1,0,3.8,1.7,3.8,3.8c0,2.1-1.7,3.8-3.8,3.8C38.8,44.5,37.1,42.8,37.1,40.7L37.1,40.7z
		 M37.1,40.7"/>
</g>
<g class="st0">
	<g class="st1">
		<g>
			<g>
				<polygon points="44.7,47.3 23.9,47.3 23.9,22.6 27.8,22.6 27.8,23.7 25,23.7 25,46.2 43.6,46.2 43.6,23.7 40.8,23.7 40.8,22.6 
					44.7,22.6 				"/>
			</g>
			<g>
				<path d="M41.9,26.2H26.7l1.1-4.9h13.1L41.9,26.2z M28.1,25.1h12.4l-0.6-2.7H28.6L28.1,25.1L28.1,25.1z"/>
			</g>
			<g>
				<g>
					<path d="M31.8,34.7h-4.8v-5.1h4.8V34.7z M28.2,33.6h2.5v-2.9h-2.5V33.6L28.2,33.6z"/>
				</g>
				<g>
					<rect x="33.9" y="31.6" width="7" height="1.1"/>
				</g>
			</g>
			<g>
				<g>
					<path d="M31.8,42.1h-4.8V37h4.8V42.1z M28.2,41h2.5v-2.9h-2.5V41z"/>
				</g>
				<g>
					<rect x="33.9" y="39" width="7" height="1.1"/>
				</g>
			</g>
		</g>
	</g>
</g>
<g class="st0">
	<path class="st1" d="M44.8,21.3H25.3c-0.7,0-1.3,0.6-1.3,1.3v1.5h-1c-0.3,0-0.6,0.2-0.6,0.6s0.2,0.6,0.6,0.6h1V28h-1
		c-0.3,0-0.6,0.2-0.6,0.6s0.2,0.6,0.6,0.6h1v2.7h-1c-0.3,0-0.6,0.2-0.6,0.6s0.2,0.6,0.6,0.6h1v2.7h-1c-0.3,0-0.6,0.2-0.6,0.6
		c0,0.3,0.2,0.6,0.6,0.6h1v2.7h-1c-0.3,0-0.6,0.2-0.6,0.6c0,0.3,0.2,0.6,0.6,0.6h1v2.7h-1c-0.3,0-0.6,0.2-0.6,0.6
		c0,0.3,0.2,0.6,0.6,0.6h1V46c0,0.7,0.6,1.3,1.3,1.3h19.5c0.7,0,1.3-0.6,1.3-1.3V22.6C46.1,21.9,45.6,21.3,44.8,21.3
		C44.8,21.3,44.8,21.3,44.8,21.3z M45,46c0,0.1-0.1,0.2-0.2,0.2H25.3c-0.1,0-0.2-0.1-0.2-0.2v-1.5h1c0.3,0,0.6-0.2,0.6-0.6
		c0-0.3-0.2-0.6-0.6-0.6h-1v-2.7h1c0.3,0,0.6-0.2,0.6-0.6c0-0.3-0.2-0.6-0.6-0.6h-1v-2.7h1c0.3,0,0.6-0.2,0.6-0.6
		c0-0.3-0.2-0.6-0.6-0.6h-1v-2.7h1c0.3,0,0.6-0.2,0.6-0.6s-0.2-0.6-0.6-0.6h-1v-2.7h1c0.3,0,0.6-0.2,0.6-0.6S26.4,28,26.1,28h-1
		v-2.7h1c0.3,0,0.6-0.2,0.6-0.6s-0.2-0.6-0.6-0.6h-1v-1.5c0-0.1,0.1-0.2,0.2-0.2h19.5c0.1,0,0.2,0.1,0.2,0.2L45,46z"/>
	<path class="st1" d="M39.8,24.3h-9.4c-0.7,0-1.3,0.6-1.3,1.3v4c0,0.7,0.6,1.3,1.3,1.3h9.4c0.7,0,1.3-0.6,1.3-1.3v-4
		C41.1,24.9,40.5,24.3,39.8,24.3z M40,29.6c0,0.1-0.1,0.2-0.2,0.2h-9.4c-0.1,0-0.2-0.1-0.2-0.2l0,0v-4c0-0.1,0.1-0.2,0.2-0.2l0,0
		h9.4c0.1,0,0.2,0.1,0.2,0.2V29.6z"/>
	<path class="st1" d="M39.6,37.5h-8.7c-0.3,0-0.6,0.2-0.6,0.6c0,0.3,0.2,0.6,0.6,0.6h8.7c0.3,0,0.6-0.2,0.6-0.6
		C40.1,37.8,39.9,37.5,39.6,37.5z"/>
	<path class="st1" d="M39.6,40.7h-8.7c-0.3,0-0.6,0.2-0.6,0.6c0,0.3,0.2,0.6,0.6,0.6h8.7c0.3,0,0.6-0.2,0.6-0.6
		C40.1,40.9,39.9,40.7,39.6,40.7z"/>
</g>
<g class="st0">
	<g class="st1">
		<g>
			<path d="M26.6,46.7c0,1.4,1.2,2.6,2.5,2.6s2.5-1.2,2.5-2.6c0-1.4-1.1-2.6-2.5-2.6C27.7,44.2,26.6,45.3,26.6,46.7z M27.8,46.7
				c0-0.7,0.6-1.3,1.2-1.3s1.2,0.6,1.2,1.3c0,0.7-0.5,1.3-1.2,1.3C28.4,48,27.8,47.4,27.8,46.7z"/>
			<path d="M40.2,46.7c0,1.4,1.1,2.6,2.5,2.6c1.3,0,2.5-1.2,2.5-2.6c0-1.4-1.1-2.6-2.5-2.6C41.3,44.2,40.2,45.3,40.2,46.7z
				 M41.4,46.7c0-0.7,0.5-1.3,1.2-1.3c0.6,0,1.2,0.6,1.2,1.3c0,0.7-0.5,1.3-1.2,1.3C42,48,41.4,47.5,41.4,46.7z"/>
			<path d="M23,19.3h-3.6v1.3H22l4.5,17.6h0.1H44c1,0,1.9,0.9,1.9,2s-0.8,2-1.9,2H26.6v1.2H44c1.8,0,3.2-1.5,3.2-3.3
				c0-1.7-1.2-3-2.7-3.2l4.6-13.7H24L23,19.3L23,19.3z M27.5,36.9l-3.1-12.4h22.9l-4.2,12.4H27.5L27.5,36.9z"/>
			<rect x="39.7" y="27.5" width="1.3" height="7.2"/>
			<rect x="35.2" y="27.5" width="1.3" height="7.2"/>
			<rect x="30.6" y="27.5" width="1.3" height="7.2"/>
		</g>
	</g>
</g>
<g class="st0">
	<path class="st1" d="M33,37.5c0-4-3.3-7.3-7.3-7.3c-4,0-7.3,3.3-7.3,7.3c0,1.2,0.3,2.3,0.8,3.3l6.6,13.5l6.6-13.5
		C32.8,39.8,33,38.7,33,37.5L33,37.5z M25.7,41.5c-2.2,0-4.1-1.8-4.1-4.1c0-2.2,1.8-4.1,4.1-4.1c2.2,0,4.1,1.8,4.1,4.1
		C29.8,39.7,27.9,41.5,25.7,41.5L25.7,41.5z M25.7,41.5"/>
	<path class="st1" d="M46.5,14.3c-2.1,0-3.7,1.7-3.7,3.7c0,0.6,0.1,1.2,0.4,1.7l3.3,6.8l3.3-6.8c0.3-0.5,0.4-1.1,0.4-1.7
		C50.2,16,48.6,14.3,46.5,14.3L46.5,14.3z M46.5,20.1c-1.1,0-2.1-0.9-2.1-2.1c0-1.1,0.9-2.1,2.1-2.1c1.1,0,2.1,0.9,2.1,2.1
		C48.6,19.2,47.6,20.1,46.5,20.1L46.5,20.1z M46.5,20.1"/>
	<path class="st1" d="M43.3,38.4c-0.2-0.7-0.3-1.4-0.6-2.1c-0.3-0.9-0.7-1.8-1-2.7c-0.6-1.7,0.4-3.2,0.6-3.4
		c0.3-0.5,0.7-0.9,1.1-1.3c0.8-0.8,1.6-1.4,2.5-2.1c-0.1-0.2-0.2-0.3-0.3-0.5c-1.3,0.5-7.8,2.8-7.7,7.8c0,1,0.4,2,0.7,3
		c0.1,0.5,0.2,0.9,0.3,1.4c0,0.2,0,0.4,0.1,0.7c0,0,0,0,0,0c0,0,0,0.7,0,1c-0.1,0.9-0.2,1.9-0.6,2.7c-0.4,0.8-0.9,1.5-1.6,2
		c-1.6,1.2-3.6,1.7-5.6,1.9c-0.1,0-0.2,0-0.3,0l-3.5,7.2c1.7-0.1,3.4-0.3,5.1-0.8c2-0.5,3.9-1.2,5.6-2.3c1.7-1.1,3.2-2.5,4.2-4.3
		c1-1.9,1.4-4,1.4-6.1C43.5,39.9,43.4,39.1,43.3,38.4L43.3,38.4z M43.3,38.4"/>
</g>
<path class="st0" d="M54.3,36.1l-3-4.7c-0.2-0.4-0.3-0.8-0.2-1.3l1.2-5.5c0.2-0.9-0.3-1.7-1.1-2L45.8,21c-0.4-0.1-0.8-0.4-1-0.8
	l-2.6-4.9c-0.4-0.8-1.3-1.1-2.1-0.8l-5.2,2.1c-0.4,0.2-0.9,0.2-1.3,0l-5.2-2.1c-0.8-0.3-1.7,0-2.1,0.8l-2.6,4.9
	c-0.2,0.4-0.6,0.7-1,0.8l-5.3,1.7c-0.8,0.3-1.3,1.1-1.1,2l1.2,5.5c0.1,0.4,0,0.9-0.2,1.3l-3,4.7c-0.5,0.7-0.3,1.7,0.4,2.2l4.4,3.4
	c0.4,0.3,0.6,0.7,0.6,1.1l0.8,5.5c0.1,0.9,0.9,1.5,1.7,1.5l5.6-0.2c0.4,0,0.9,0.1,1.2,0.4l4.1,3.8c0.6,0.6,1.6,0.6,2.3,0l4.1-3.8
	c0.3-0.3,0.8-0.5,1.2-0.4l5.6,0.2c0.9,0,1.6-0.6,1.7-1.5l0.8-5.5c0.1-0.4,0.3-0.8,0.6-1.1l4.4-3.4C54.6,37.8,54.8,36.8,54.3,36.1
	L54.3,36.1z M28.7,42.2l-5.8-4l2.4,5.5l-1.6,0.7L20,35.9l1.7-0.7l5.9,4.2l-2.4-5.7l1.6-0.7l3.7,8.5L28.7,42.2z M32.2,40.6l-3.7-8.5
	l6.3-2.7l0.6,1.4l-4.6,2l0.8,1.9l4.3-1.8l0.6,1.4l-4.3,1.8l1,2.3l4.7-2l0.6,1.4L32.2,40.6z M46.5,34.5l-4.4-5.6l1.1,7.1l-1.9,0.8
	l-5.7-7.6l1.8-0.8l3.8,5.3l-1-6.5l2-0.9l4,5.3L45,25.1l1.7-0.7l1.6,9.4L46.5,34.5z M44.8,34.5"/>
<g class="st0">
	<path class="st1" d="M42.4,19.3c-4.1,0-6.7,2.8-8.1,5.4c-1.4-2.5-4-5.4-8.1-5.4c-5.2,0-9.1,4.2-9.1,9.8c0,1.5,0.3,2.8,0.8,4.1h7.7
		l1.7-3.5c0.3-0.7,1.5-0.7,1.8,0l3.1,6.3l1.1-2.2c0.3-0.7,1.5-0.7,1.8,0l1.1,2.2l3.1-6.3c0.3-0.7,1.5-0.7,1.8,0l1.7,3.5h7.7
		c0.5-1.3,0.8-2.6,0.8-4.1C51.5,23.5,47.5,19.3,42.4,19.3z"/>
	<path class="st1" d="M41.5,34.6l-1.1-2.2l-3.1,6.3c-0.2,0.3-0.5,0.6-0.9,0.6c-0.4,0-0.7-0.2-0.9-0.6l-1.1-2.2l-1.1,2.2
		c-0.3,0.7-1.5,0.7-1.8,0l-3.1-6.3l-1.1,2.2c-0.2,0.3-0.5,0.6-0.9,0.6H19c2.1,3.3,5.8,6.4,10.5,10.3c1.3,1.1,2.7,2.3,4.2,3.6
		c0.2,0.2,0.4,0.2,0.7,0.2s0.5-0.1,0.7-0.2c1.5-1.3,2.9-2.5,4.2-3.6c4.7-3.9,8.4-7.1,10.5-10.3h-7.3C42,35.2,41.6,35,41.5,34.6z"/>
</g>
<polygon class="st0" points="37.4,43.3 29.6,34.4 37.2,25.3 38.8,26.6 32.3,34.4 39,41.9 "/>
<g class="st0">
	<g class="st1">
		<path d="M34.8,13.2c-0.4,0-0.7-0.3-0.7-0.6c-0.3-2.3-2.4-4.1-4.7-4.1c-1.5,0-3,0.7-3.8,2c-0.2,0.3-0.7,0.4-1,0.2
			c-0.3-0.2-0.4-0.7-0.2-1C25.5,8,27.3,7,29.3,7c3.1,0,5.7,2.3,6.2,5.3c0.1,0.4-0.2,0.8-0.6,0.8C34.8,13.2,34.8,13.2,34.8,13.2z"/>
		<path d="M45.4,21.7H13.2c-0.3,0-0.5-0.1-0.6-0.4c-0.1-0.2-0.1-0.5,0-0.7l2.2-3.7c0.1-0.2,0.4-0.4,0.6-0.4h1.2
			c0.4,0,0.7,0.3,0.7,0.7c0,0.4-0.3,0.7-0.7,0.7h-0.8l-1.3,2.2h29.7L42.8,18h-1.7c-0.4,0-0.7-0.3-0.7-0.7c0-0.4,0.3-0.7,0.7-0.7h2.1
			c0.3,0,0.5,0.1,0.6,0.4l2.2,3.7c0.1,0.2,0.1,0.5,0,0.7C45.9,21.5,45.7,21.7,45.4,21.7z"/>
		<path d="M40.3,21.4c-0.1,0-0.1,0-0.2,0c-0.4-0.1-0.6-0.5-0.5-0.9l1.3-5.8l-8.6-2l-0.6,2.5c-0.1,0.4-0.5,0.6-0.9,0.5
			c-0.4-0.1-0.6-0.5-0.5-0.9l0.8-3.2c0-0.2,0.2-0.4,0.3-0.5c0.2-0.1,0.4-0.1,0.6-0.1l10,2.3c0.2,0,0.4,0.2,0.5,0.3
			c0.1,0.2,0.1,0.4,0.1,0.6L41,20.8C40.9,21.1,40.6,21.4,40.3,21.4z"/>
		<path d="M17.2,21.6c-0.4,0-0.7-0.3-0.7-0.6l-1.1-9.4c0-0.4,0.2-0.8,0.6-0.8l12.3-1.4c0.2,0,0.4,0,0.5,0.2C28.9,9.5,29,9.7,29,9.9
			l0.7,5.6c0,0.4-0.2,0.8-0.6,0.8c-0.4,0-0.8-0.2-0.8-0.6l-0.6-4.9L16.9,12l1,8.7C17.9,21.1,17.7,21.5,17.2,21.6
			C17.2,21.6,17.2,21.6,17.2,21.6z"/>
		<path d="M34.8,21.5c-0.3,0-0.6-0.2-0.7-0.6l-1.3-5.3l-10.4,2.5l0.6,2.3c0.1,0.4-0.1,0.8-0.5,0.9c-0.4,0.1-0.8-0.1-0.9-0.5l-0.7-3
			c-0.1-0.4,0.1-0.8,0.5-0.9l11.8-2.8c0.2,0,0.4,0,0.6,0.1c0.2,0.1,0.3,0.3,0.3,0.5l1.5,6c0.1,0.4-0.1,0.8-0.5,0.9
			C34.9,21.5,34.8,21.5,34.8,21.5z"/>
		<path d="M45.4,35.2l-0.7-13.6H13.9l-1.4,27.1h18.6l0.3,1.5H11.7c-0.2,0-0.4-0.1-0.5-0.2c-0.1-0.1-0.2-0.3-0.2-0.5l1.5-28.6
			c0-0.4,0.3-0.7,0.7-0.7h32.2c0.4,0,0.7,0.3,0.7,0.7l0.7,14.3"/>
		<path d="M34.8,27.5c-1.2,0-2.2-1-2.2-2.2c0-1.2,1-2.2,2.2-2.2c1.2,0,2.2,1,2.2,2.2C37,26.5,36,27.5,34.8,27.5z M34.8,24.6
			c-0.4,0-0.7,0.3-0.7,0.7s0.3,0.7,0.7,0.7c0.4,0,0.7-0.3,0.7-0.7S35.2,24.6,34.8,24.6z"/>
		<path d="M23.8,27.5c-1.2,0-2.2-1-2.2-2.2c0-1.2,1-2.2,2.2-2.2c1.2,0,2.2,1,2.2,2.2C26,26.5,25,27.5,23.8,27.5z M23.8,24.6
			c-0.4,0-0.7,0.3-0.7,0.7s0.3,0.7,0.7,0.7c0.4,0,0.7-0.3,0.7-0.7S24.2,24.6,23.8,24.6z"/>
		<path d="M34.8,24.6"/>
		<path d="M29.3,36.3c-3.4,0-6.2-2.8-6.2-6.2v-4c0-0.4,0.3-0.7,0.7-0.7c0.4,0,0.7,0.3,0.7,0.7v4c0,2.6,2.1,4.8,4.8,4.8
			s4.8-2.1,4.8-4.8v-3.7c0-0.1-0.1-0.2-0.1-0.3c0-0.4,0.3-0.7,0.7-0.7h0.1c0.4,0,0.7,0.3,0.7,0.7v4C35.5,33.5,32.8,36.3,29.3,36.3z"
			/>
	</g>
	<path class="st1" d="M45,61.6c-6.9,0-12.5-5.6-12.5-12.5S38.1,36.5,45,36.5s12.5,5.6,12.5,12.5S52,61.6,45,61.6z M45,37.8
		c-6.2,0-11.3,5.1-11.3,11.3S38.8,60.4,45,60.4s11.3-5.1,11.3-11.3S51.3,37.8,45,37.8z"/>
	<g class="st1">
		<path d="M40.5,42.3c0.3-0.2,0.6-0.5,0.9-0.7c0.3-0.2,0.7-0.4,1-0.5c0.4-0.2,0.8-0.3,1.2-0.4c0.4-0.1,0.9-0.1,1.4-0.1
			c0.7,0,1.3,0.1,1.9,0.3c0.6,0.2,1,0.5,1.4,0.8c0.4,0.3,0.7,0.8,0.9,1.3c0.2,0.5,0.3,1,0.3,1.6c0,0.6-0.1,1.1-0.2,1.5
			c-0.2,0.4-0.4,0.8-0.6,1.1c-0.2,0.3-0.5,0.6-0.8,0.8c-0.3,0.2-0.6,0.4-0.8,0.6c-0.3,0.2-0.5,0.4-0.7,0.6c-0.2,0.2-0.3,0.4-0.4,0.6
			l-0.3,1.6h-2.2l-0.2-1.9c-0.1-0.4,0-0.7,0.1-1c0.1-0.3,0.3-0.5,0.6-0.7c0.2-0.2,0.5-0.4,0.8-0.7c0.3-0.2,0.6-0.4,0.8-0.7
			c0.3-0.2,0.5-0.5,0.7-0.8c0.2-0.3,0.3-0.7,0.3-1.1c0-0.5-0.2-0.9-0.5-1.2c-0.3-0.3-0.8-0.4-1.4-0.4c-0.4,0-0.8,0-1.1,0.1
			c-0.3,0.1-0.5,0.2-0.7,0.3c-0.2,0.1-0.4,0.2-0.5,0.3C42.3,43.9,42.1,44,42,44c-0.3,0-0.5-0.1-0.7-0.4L40.5,42.3z M42.7,55.7
			c0-0.3,0-0.5,0.1-0.7s0.2-0.4,0.4-0.6c0.2-0.2,0.4-0.3,0.6-0.4c0.2-0.1,0.5-0.1,0.7-0.1c0.3,0,0.5,0,0.7,0.1
			c0.2,0.1,0.4,0.2,0.6,0.4c0.2,0.2,0.3,0.4,0.4,0.6c0.1,0.2,0.1,0.5,0.1,0.7c0,0.3,0,0.5-0.1,0.7c-0.1,0.2-0.2,0.4-0.4,0.6
			c-0.2,0.2-0.4,0.3-0.6,0.4c-0.2,0.1-0.5,0.1-0.7,0.1c-0.3,0-0.5,0-0.7-0.1c-0.2-0.1-0.4-0.2-0.6-0.4c-0.2-0.2-0.3-0.4-0.4-0.6
			C42.7,56.2,42.7,56,42.7,55.7z"/>
	</g>
</g>
<g>
	<path d="M52,16.6c-4.7-4.7-11-7.3-17.7-7.3s-13,2.6-17.7,7.3c-4.7,4.7-7.3,11-7.3,17.7s2.6,13,7.3,17.7c4.7,4.7,11,7.3,17.7,7.3
		s13-2.6,17.7-7.3c4.7-4.7,7.3-11,7.3-17.7S56.7,21.3,52,16.6z M34.3,57.3c-6.2,0-11.9-2.4-16.3-6.8c-4.4-4.4-6.8-10.1-6.8-16.3
		S13.6,22.4,18,18c4.4-4.4,10.1-6.8,16.3-6.8s11.9,2.4,16.3,6.8c4.4,4.4,6.8,10.1,6.8,16.3s-2.4,11.9-6.8,16.3
		C46.2,54.9,40.4,57.3,34.3,57.3z"/>
	<path d="M34.3,14.5c-2.9,0-5.6,0.6-8.2,1.8c-0.5,0.2-0.7,0.8-0.5,1.3c0,0,0,0,0,0c0.2,0.5,0.8,0.7,1.3,0.5c2.3-1.1,4.8-1.6,7.4-1.6
		c9.8,0,17.8,8,17.8,17.8s-8,17.8-17.8,17.8s-17.8-8-17.8-17.8c0-3.7,1.1-7.3,3.3-10.3c0.3-0.4,0.2-1-0.2-1.3c0,0,0,0,0,0
		c-0.4-0.3-1-0.2-1.4,0.2c-2.4,3.4-3.6,7.3-3.6,11.4c0,10.9,8.9,19.8,19.8,19.8S54,45.2,54,34.3S45.2,14.5,34.3,14.5z"/>
	<path d="M28.7,32C28.7,31.9,28.7,31.9,28.7,32C28.7,31.9,28.7,31.9,28.7,32z"/>
	<path d="M28.8,31.9C28.8,31.8,28.8,31.8,28.8,31.9C28.8,31.8,28.8,31.8,28.8,31.9z"/>
	<path d="M39.9,36.6C39.9,36.6,39.9,36.6,39.9,36.6C39.9,36.6,39.9,36.6,39.9,36.6z"/>
	<path d="M39.9,36.4C39.9,36.5,39.9,36.5,39.9,36.4C39.9,36.5,39.9,36.5,39.9,36.4z"/>
	<path d="M28.6,32.2C28.6,32.2,28.6,32.1,28.6,32.2C28.6,32.1,28.6,32.2,28.6,32.2z"/>
	<path d="M40,36.2c0,0,0,0.1,0,0.1C40,36.3,40,36.2,40,36.2z"/>
	<path d="M40,36.3C40,36.4,40,36.4,40,36.3C40,36.4,40,36.4,40,36.3z"/>
	<path d="M28.7,32.1C28.7,32,28.7,32,28.7,32.1C28.7,32,28.7,32,28.7,32.1z"/>
	<path d="M28.6,32.3C28.6,32.3,28.6,32.2,28.6,32.3C28.6,32.2,28.6,32.3,28.6,32.3z"/>
	<path d="M39.9,36.7C39.8,36.7,39.8,36.7,39.9,36.7C39.8,36.7,39.8,36.7,39.9,36.7z"/>
	<path d="M40.5,21.2c0-0.4-0.2-0.7-0.5-0.9C40.3,20.5,40.5,20.8,40.5,21.2z"/>
	<path d="M39.9,20.3C39.9,20.3,39.9,20.3,39.9,20.3c-0.5-0.2-0.9-0.1-1.2,0.2l-9.9,11.3c0,0,0,0.1-0.1,0.1c0,0,0,0,0,0
		c0,0,0,0,0,0.1c0,0,0,0,0,0c0,0,0,0.1,0,0.1c0,0,0,0,0,0c0,0,0,0.1,0,0.1c0,0,0,0,0,0c0,0,0,0.1,0,0.1c0,0,0,0,0,0c0,0,0,0.1,0,0.1
		l-0.5,15c0,0.4,0.2,0.8,0.6,0.9c0.1,0,0.2,0.1,0.4,0.1c0.3,0,0.5-0.1,0.7-0.3l9.9-11.3c0,0,0,0,0.1-0.1c0,0,0,0,0,0
		c0,0,0-0.1,0-0.1c0,0,0,0,0,0c0,0,0,0,0-0.1c0,0,0,0,0,0c0,0,0-0.1,0-0.1c0,0,0,0,0,0c0,0,0-0.1,0-0.1c0,0,0,0,0,0c0,0,0-0.1,0-0.1
		l0.5-15C40.5,20.8,40.3,20.5,39.9,20.3z M38.4,23.9l-0.3,10.9L31.2,32L38.4,23.9z M30.2,44.7l0.3-10.9l6.9,2.7L30.2,44.7z"/>
	<path d="M34.3,21.5c0.5,0,1-0.4,1-1V19c0-0.5-0.4-1-1-1s-1,0.4-1,1v1.5C33.3,21.1,33.7,21.5,34.3,21.5z"/>
	<path d="M34.3,47.1c-0.5,0-1,0.4-1,1v1.5c0,0.5,0.4,1,1,1c0.5,0,1-0.4,1-1v-1.5C35.3,47.5,34.8,47.1,34.3,47.1z"/>
	<path d="M48,35.3h1.5c0.5,0,1-0.4,1-1s-0.4-1-1-1H48c-0.5,0-1,0.4-1,1C47.1,34.8,47.5,35.3,48,35.3z"/>
	<path d="M18,34.3c0,0.5,0.4,1,1,1h1.5c0.5,0,1-0.4,1-1s-0.4-1-1-1H19C18.5,33.3,18,33.8,18,34.3z"/>
	<path d="M22.4,20.8c0.5,0,1-0.4,1-1c0-0.2-0.1-0.4-0.2-0.6c-0.2-0.2-0.5-0.4-0.8-0.4h0c-0.5,0-1,0.4-1,1c0,0.2,0.1,0.5,0.2,0.6
		C21.8,20.6,22.1,20.8,22.4,20.8z"/>
</g>
<g class="st0">
	<path class="st1" d="M9.2,16.3v36h50.2v-36H9.2z M39.8,34.8l-4.6,4.6c-0.6,0.5-1.4,0.5-1.9,0l-4.6-4.6l0,0L12.2,18h44.1L39.8,34.8
		L39.8,34.8z M26.4,34.7L10.8,49.7V19.2L26.4,34.7z M27.5,35.9l4.6,4.6c0.6,0.6,1.4,0.8,2.1,0.8c0.8,0,1.5-0.3,2.2-0.9l4.6-4.6
		l15.3,14.7h-44L27.5,35.9z M42.2,34.8l15.5-15.6v30.5L42.2,34.8z M42.2,34.8"/>
</g>
<g class="st0">
	<g class="st1">
		<path d="M38.8,24.3h-9c-3,0-5.5,2.5-5.5,5.5v9c0,3,2.5,5.5,5.5,5.5h9c3,0,5.5-2.5,5.5-5.5v-9C44.3,26.8,41.8,24.3,38.8,24.3
			L38.8,24.3z M42.5,38.8c0,2.1-1.7,3.7-3.7,3.7h-9c-2.1,0-3.7-1.7-3.7-3.7v-9c0-2.1,1.7-3.7,3.7-3.7h9c2.1,0,3.7,1.7,3.7,3.7V38.8z
			 M42.5,38.8"/>
		<path d="M34.3,29.1c-2.8,0-5.2,2.3-5.2,5.2c0,2.8,2.3,5.2,5.2,5.2c2.8,0,5.2-2.3,5.2-5.2C39.4,31.5,37.1,29.1,34.3,29.1L34.3,29.1
			z M34.3,37.7c-1.9,0-3.4-1.5-3.4-3.4c0-1.9,1.5-3.4,3.4-3.4s3.4,1.5,3.4,3.4C37.7,36.2,36.1,37.7,34.3,37.7L34.3,37.7z M34.3,37.7
			"/>
		<path d="M39.7,27.6c-0.3,0-0.7,0.1-0.9,0.4c-0.2,0.2-0.4,0.6-0.4,0.9c0,0.3,0.1,0.7,0.4,0.9c0.2,0.2,0.6,0.4,0.9,0.4
			c0.3,0,0.7-0.1,0.9-0.4c0.2-0.2,0.4-0.6,0.4-0.9c0-0.3-0.1-0.7-0.4-0.9C40.3,27.8,40,27.6,39.7,27.6L39.7,27.6z M39.7,27.6"/>
	</g>
</g>
<g class="st0">
	<g class="st1">
		<path d="M35.9,44h-4.4v-9.5h-1.9v-3.8h1.9v-1.9c0-2,1.1-4.2,4.2-4.2l3.1,0v3.7h-2.3c-0.3,0-0.6,0.1-0.6,0.7v1.7h3l-0.4,3.8h-2.6
			V44z"/>
	</g>
</g>
<path class="st0" d="M30.4,43.3c-2.5,0-4.9-0.7-6.9-2l-0.8-0.5l1,0.1c0.3,0,0.7,0.1,1,0.1c1.8,0,3.4-0.5,4.9-1.5
	c-1.7-0.3-3.2-1.5-3.7-3.2l-0.1-0.4l0.4,0.1c0.3,0.1,0.6,0.1,1,0.1c-1.7-0.7-2.8-2.4-2.8-4.3l0-0.4l0.3,0.2c0.4,0.2,0.7,0.3,1.1,0.4
	c-0.9-0.9-1.4-2.1-1.4-3.4c0-0.8,0.2-1.6,0.6-2.3l0.2-0.3l0.2,0.3c2.2,2.6,5.3,4.3,8.7,4.5c0-0.3-0.1-0.5-0.1-0.8
	c0-2.6,2.1-4.7,4.7-4.7c1.2,0,2.4,0.5,3.3,1.4c0.9-0.2,1.8-0.5,2.6-1l0.5-0.3l-0.2,0.6c-0.2,0.8-0.7,1.5-1.3,2
	c0.5-0.1,1.1-0.3,1.6-0.5l0.7-0.3l-0.4,0.7c-0.6,0.9-1.3,1.7-2.2,2.3c0,0.2,0,0.3,0,0.5c0,3.1-1.2,6.3-3.3,8.7
	C38.3,41,35.3,43.3,30.4,43.3z"/>
<path class="st0" d="M40.9,26.3H27.7c-2.6,0-4.7,2.1-4.7,4.7v6.6c0,2.6,2.1,4.7,4.7,4.7h13.2c2.6,0,4.7-2.1,4.7-4.7V31
	C45.6,28.4,43.5,26.3,40.9,26.3z M37.7,34.6l-6.2,2.9c-0.2,0.1-0.4,0-0.4-0.2v-6.1c0-0.2,0.2-0.3,0.4-0.2l6.2,3.1
	C37.9,34.3,37.9,34.5,37.7,34.6z"/>
</svg>
