<svg xmlns="http://www.w3.org/2000/svg" viewBox="0 0 43.99 16"><defs><style>.cls-1{fill:#fff;}</style></defs><title>Recurso 2</title><g id="Capa_2" data-name="Capa 2"><g id="folds"><path class="cls-1" d="M17.31,0h-14A1.43,1.43,0,0,0,2.07,2.11l1.4,2.65H.93A.93.93,0,0,0,0,5.69a.92.92,0,0,0,.11.43L4.6,14.63A.93.93,0,0,0,5.86,15a.92.92,0,0,0,.39-.39l1.22-2.3L9,15.23a1.44,1.44,0,0,0,2.54,0l7-13.18A1.4,1.4,0,0,0,17.31,0ZM11,5.63,8,11.32a.63.63,0,0,1-.84.25.57.57,0,0,1-.26-.25l-3-5.66a.61.61,0,0,1,.26-.84.65.65,0,0,1,.28-.08h6a.61.61,0,0,1,.61.61.68.68,0,0,1-.07.28Z"/><path class="cls-1" d="M32.18,6.11H30.65v5.24a.18.18,0,0,1-.18.18H29.29a.18.18,0,0,1-.18-.18V6.11H27.57A.17.17,0,0,1,27.39,6h0V5a.17.17,0,0,1,.18-.17h4.61a.17.17,0,0,1,.18.17v.92A.17.17,0,0,1,32.18,6.11Z"/><path class="cls-1" d="M37.08,11.5a12.71,12.71,0,0,1-1.81.11c-1.16,0-2.19-.29-2.19-1.93v-3c0-1.64,1-1.93,2.2-1.93a12,12,0,0,1,1.8.12c.13,0,.18.06.18.18V5.9a.18.18,0,0,1-.18.18H35.19c-.43,0-.58.14-.58.61v.82H37a.18.18,0,0,1,.18.18v.85a.18.18,0,0,1-.18.18h-2.4v1c0,.47.15.61.58.61h1.89a.18.18,0,0,1,.18.18v.84C37.26,11.42,37.21,11.48,37.08,11.5Z"/><path class="cls-1" d="M43.87,11.53H42.44a.25.25,0,0,1-.23-.13L41,9.43l-1.13,1.92c-.06.11-.12.18-.22.18H38.29c-.09,0-.14,0-.14-.11a.14.14,0,0,1,0-.07L40.12,8.1,38.15,5a.14.14,0,0,1,0-.06.12.12,0,0,1,.14-.11h1.45c.1,0,.17.09.22.17l1.15,1.81L42.21,5a.28.28,0,0,1,.22-.17h1.33A.12.12,0,0,1,43.9,5l0,.06-2,3.1,2,3.23a.16.16,0,0,1,0,.09C44,11.5,43.94,11.53,43.87,11.53Z"/><path class="cls-1" d="M25.23,4.86A.14.14,0,0,0,25.1,5L23.79,9.81c0,.1,0,.14-.12.14s-.11,0-.13-.14L22.23,5a.14.14,0,0,0-.13-.11H20.81a.14.14,0,0,0-.14.14,0,0,0,0,0,0,0s1.59,5.55,1.61,5.6a1.36,1.36,0,0,0,1.39,1,1.39,1.39,0,0,0,1.38-1c0-.07,1.59-5.6,1.59-5.6a.14.14,0,0,0-.11-.16H25.23Z"/><path class="cls-1" d="M17.31,0h-14A1.43,1.43,0,0,0,2.07,2.11l1.4,2.65H.93A.93.93,0,0,0,0,5.69a.92.92,0,0,0,.11.43L4.6,14.63A.93.93,0,0,0,5.86,15a.92.92,0,0,0,.39-.39l1.22-2.3L9,15.23a1.44,1.44,0,0,0,2.54,0l7-13.18A1.4,1.4,0,0,0,17.31,0ZM11,5.63,8,11.32a.63.63,0,0,1-.84.25.57.57,0,0,1-.26-.25l-3-5.66a.61.61,0,0,1,.26-.84.65.65,0,0,1,.28-.08h6a.61.61,0,0,1,.61.61.68.68,0,0,1-.07.28Z"/></g></g></svg>